<mxfile host="Electron" modified="2023-12-04T09:49:52.014Z" agent="Mozilla/5.0 (Windows NT 10.0; Win64; x64) AppleWebKit/537.36 (KHTML, like Gecko) draw.io/22.1.2 Chrome/114.0.5735.289 Electron/25.9.4 Safari/537.36" etag="Xl6pefVpEqq23We2M5bV" version="22.1.2" type="device">
  <diagram name="Страница — 1" id="ILtFAkhf57ipAOvoTek3">
    <mxGraphModel dx="521" dy="621" grid="1" gridSize="10" guides="1" tooltips="1" connect="1" arrows="1" fold="1" page="1" pageScale="1" pageWidth="827" pageHeight="1169" math="0" shadow="0">
      <root>
        <mxCell id="0" />
        <mxCell id="1" parent="0" />
        <mxCell id="pkNRhPRXysYuJzZf2Pa--6" value="" style="edgeStyle=orthogonalEdgeStyle;rounded=0;orthogonalLoop=1;jettySize=auto;html=1;" parent="1" source="pkNRhPRXysYuJzZf2Pa--1" target="pkNRhPRXysYuJzZf2Pa--2" edge="1">
          <mxGeometry relative="1" as="geometry" />
        </mxCell>
        <mxCell id="pkNRhPRXysYuJzZf2Pa--1" value="Початок" style="ellipse;whiteSpace=wrap;html=1;" parent="1" vertex="1">
          <mxGeometry x="540" y="240" width="120" height="80" as="geometry" />
        </mxCell>
        <mxCell id="pkNRhPRXysYuJzZf2Pa--7" value="" style="edgeStyle=orthogonalEdgeStyle;rounded=0;orthogonalLoop=1;jettySize=auto;html=1;" parent="1" source="pkNRhPRXysYuJzZf2Pa--2" target="pkNRhPRXysYuJzZf2Pa--3" edge="1">
          <mxGeometry relative="1" as="geometry" />
        </mxCell>
        <mxCell id="pkNRhPRXysYuJzZf2Pa--2" value="int result = 0" style="rounded=0;whiteSpace=wrap;html=1;" parent="1" vertex="1">
          <mxGeometry x="540" y="360" width="120" height="60" as="geometry" />
        </mxCell>
        <mxCell id="pkNRhPRXysYuJzZf2Pa--8" value="" style="edgeStyle=orthogonalEdgeStyle;rounded=0;orthogonalLoop=1;jettySize=auto;html=1;" parent="1" source="pkNRhPRXysYuJzZf2Pa--3" target="pkNRhPRXysYuJzZf2Pa--5" edge="1">
          <mxGeometry relative="1" as="geometry" />
        </mxCell>
        <mxCell id="pkNRhPRXysYuJzZf2Pa--3" value="&amp;nbsp;int isWord = 0" style="whiteSpace=wrap;html=1;rounded=0;" parent="1" vertex="1">
          <mxGeometry x="540" y="500" width="120" height="60" as="geometry" />
        </mxCell>
        <mxCell id="pkNRhPRXysYuJzZf2Pa--4" value="" style="verticalLabelPosition=bottom;verticalAlign=top;html=1;shape=hexagon;perimeter=hexagonPerimeter2;arcSize=6;size=0.27;" parent="1" vertex="1">
          <mxGeometry x="550" y="620" width="100" height="60" as="geometry" />
        </mxCell>
        <mxCell id="pkNRhPRXysYuJzZf2Pa--11" value="" style="edgeStyle=orthogonalEdgeStyle;rounded=0;orthogonalLoop=1;jettySize=auto;html=1;" parent="1" target="pkNRhPRXysYuJzZf2Pa--9" edge="1">
          <mxGeometry relative="1" as="geometry">
            <mxPoint x="600" y="680" as="sourcePoint" />
          </mxGeometry>
        </mxCell>
        <mxCell id="pkNRhPRXysYuJzZf2Pa--5" value="text[i] != &#39;\0&#39;" style="text;html=1;align=center;verticalAlign=middle;resizable=0;points=[];autosize=1;strokeColor=none;fillColor=none;" parent="1" vertex="1">
          <mxGeometry x="560" y="635" width="80" height="30" as="geometry" />
        </mxCell>
        <mxCell id="pkNRhPRXysYuJzZf2Pa--13" value="" style="edgeStyle=orthogonalEdgeStyle;rounded=0;orthogonalLoop=1;jettySize=auto;html=1;" parent="1" source="pkNRhPRXysYuJzZf2Pa--9" target="pkNRhPRXysYuJzZf2Pa--12" edge="1">
          <mxGeometry relative="1" as="geometry" />
        </mxCell>
        <mxCell id="pkNRhPRXysYuJzZf2Pa--9" value="i++" style="whiteSpace=wrap;html=1;" parent="1" vertex="1">
          <mxGeometry x="540" y="730" width="120" height="60" as="geometry" />
        </mxCell>
        <mxCell id="pkNRhPRXysYuJzZf2Pa--21" value="" style="edgeStyle=orthogonalEdgeStyle;rounded=0;orthogonalLoop=1;jettySize=auto;html=1;" parent="1" source="pkNRhPRXysYuJzZf2Pa--12" edge="1">
          <mxGeometry relative="1" as="geometry">
            <mxPoint x="600" y="1085.0000000000002" as="targetPoint" />
          </mxGeometry>
        </mxCell>
        <mxCell id="pkNRhPRXysYuJzZf2Pa--22" value="True" style="edgeLabel;html=1;align=center;verticalAlign=middle;resizable=0;points=[];" parent="pkNRhPRXysYuJzZf2Pa--21" vertex="1" connectable="0">
          <mxGeometry x="0.1476" y="-2" relative="1" as="geometry">
            <mxPoint as="offset" />
          </mxGeometry>
        </mxCell>
        <mxCell id="pkNRhPRXysYuJzZf2Pa--12" value="&lt;div&gt;text[i] != &#39; &#39; &amp;amp;&amp;amp; text[i] != &#39;\t&#39; &amp;amp;&amp;amp;&lt;/div&gt;&lt;div&gt;&amp;nbsp;text[i] != &#39;\n&#39; &amp;amp;&amp;amp;&lt;/div&gt;&lt;div&gt;&amp;nbsp; &amp;nbsp; &amp;nbsp; &amp;nbsp; text[i] != &#39;!&#39; &amp;amp;&amp;amp; text[i] != &#39;?&#39;&lt;/div&gt;&lt;div&gt;&lt;br&gt;&lt;/div&gt;" style="rhombus;whiteSpace=wrap;html=1;" parent="1" vertex="1">
          <mxGeometry x="462.5" y="870" width="275" height="110" as="geometry" />
        </mxCell>
        <mxCell id="pkNRhPRXysYuJzZf2Pa--14" value="" style="endArrow=classic;html=1;rounded=0;entryX=0;entryY=0.5;entryDx=0;entryDy=0;exitX=0;exitY=0.5;exitDx=0;exitDy=0;" parent="1" target="pkNRhPRXysYuJzZf2Pa--4" edge="1" source="pkNRhPRXysYuJzZf2Pa--12">
          <mxGeometry width="50" height="50" relative="1" as="geometry">
            <mxPoint x="462.5" y="920" as="sourcePoint" />
            <mxPoint x="512.5" y="870" as="targetPoint" />
            <Array as="points">
              <mxPoint x="463" y="760" />
              <mxPoint x="463" y="650" />
            </Array>
          </mxGeometry>
        </mxCell>
        <mxCell id="pkNRhPRXysYuJzZf2Pa--19" value="False" style="edgeLabel;html=1;align=center;verticalAlign=middle;resizable=0;points=[];" parent="pkNRhPRXysYuJzZf2Pa--14" vertex="1" connectable="0">
          <mxGeometry x="-0.5311" relative="1" as="geometry">
            <mxPoint as="offset" />
          </mxGeometry>
        </mxCell>
        <mxCell id="pkNRhPRXysYuJzZf2Pa--25" value="" style="edgeStyle=orthogonalEdgeStyle;rounded=0;orthogonalLoop=1;jettySize=auto;html=1;" parent="1" source="pkNRhPRXysYuJzZf2Pa--23" target="pkNRhPRXysYuJzZf2Pa--24" edge="1">
          <mxGeometry relative="1" as="geometry" />
        </mxCell>
        <mxCell id="mVNRX5Atvfrtjoymn3qX-1" value="True" style="edgeLabel;html=1;align=center;verticalAlign=middle;resizable=0;points=[];" parent="pkNRhPRXysYuJzZf2Pa--25" vertex="1" connectable="0">
          <mxGeometry x="0.0269" y="1" relative="1" as="geometry">
            <mxPoint as="offset" />
          </mxGeometry>
        </mxCell>
        <mxCell id="pkNRhPRXysYuJzZf2Pa--23" value="&lt;div&gt;!isWord&lt;br&gt;&lt;/div&gt;" style="rhombus;whiteSpace=wrap;html=1;" parent="1" vertex="1">
          <mxGeometry x="471.25" y="1080" width="257.5" height="100" as="geometry" />
        </mxCell>
        <mxCell id="pkNRhPRXysYuJzZf2Pa--29" value="" style="edgeStyle=orthogonalEdgeStyle;rounded=0;orthogonalLoop=1;jettySize=auto;html=1;" parent="1" source="pkNRhPRXysYuJzZf2Pa--24" target="pkNRhPRXysYuJzZf2Pa--26" edge="1">
          <mxGeometry relative="1" as="geometry" />
        </mxCell>
        <mxCell id="pkNRhPRXysYuJzZf2Pa--24" value="result++" style="whiteSpace=wrap;html=1;" parent="1" vertex="1">
          <mxGeometry x="540" y="1240" width="120" height="60" as="geometry" />
        </mxCell>
        <mxCell id="pkNRhPRXysYuJzZf2Pa--30" value="" style="edgeStyle=orthogonalEdgeStyle;rounded=0;orthogonalLoop=1;jettySize=auto;html=1;" parent="1" source="pkNRhPRXysYuJzZf2Pa--26" target="pkNRhPRXysYuJzZf2Pa--27" edge="1">
          <mxGeometry relative="1" as="geometry" />
        </mxCell>
        <mxCell id="pkNRhPRXysYuJzZf2Pa--26" value="isWord = 1" style="whiteSpace=wrap;html=1;" parent="1" vertex="1">
          <mxGeometry x="540" y="1370" width="120" height="60" as="geometry" />
        </mxCell>
        <mxCell id="pkNRhPRXysYuJzZf2Pa--31" value="" style="edgeStyle=orthogonalEdgeStyle;rounded=0;orthogonalLoop=1;jettySize=auto;html=1;" parent="1" source="pkNRhPRXysYuJzZf2Pa--27" target="pkNRhPRXysYuJzZf2Pa--28" edge="1">
          <mxGeometry relative="1" as="geometry" />
        </mxCell>
        <mxCell id="pkNRhPRXysYuJzZf2Pa--27" value="&amp;nbsp; return result" style="whiteSpace=wrap;html=1;" parent="1" vertex="1">
          <mxGeometry x="540" y="1520" width="120" height="60" as="geometry" />
        </mxCell>
        <mxCell id="pkNRhPRXysYuJzZf2Pa--28" value="Кінець" style="ellipse;whiteSpace=wrap;html=1;" parent="1" vertex="1">
          <mxGeometry x="540" y="1650" width="120" height="80" as="geometry" />
        </mxCell>
        <mxCell id="pkNRhPRXysYuJzZf2Pa--32" value="" style="strokeWidth=2;html=1;shape=mxgraph.flowchart.annotation_2;align=left;labelPosition=right;pointerEvents=1;" parent="1" vertex="1">
          <mxGeometry x="800" y="875" width="50" height="100" as="geometry" />
        </mxCell>
        <mxCell id="pkNRhPRXysYuJzZf2Pa--34" value="Перевірка на пробіли, табуляції та символом &#xa;нового рядка, а також  на знак&#xa;    оклику, питання" style="text;whiteSpace=wrap;" parent="1" vertex="1">
          <mxGeometry x="840" y="890" width="460" height="50" as="geometry" />
        </mxCell>
        <mxCell id="pkNRhPRXysYuJzZf2Pa--36" value="" style="endArrow=none;dashed=1;html=1;dashPattern=1 3;strokeWidth=2;rounded=0;exitX=1;exitY=0.5;exitDx=0;exitDy=0;entryX=0;entryY=0.5;entryDx=0;entryDy=0;entryPerimeter=0;" parent="1" source="pkNRhPRXysYuJzZf2Pa--12" target="pkNRhPRXysYuJzZf2Pa--32" edge="1">
          <mxGeometry width="50" height="50" relative="1" as="geometry">
            <mxPoint x="700" y="590" as="sourcePoint" />
            <mxPoint x="750" y="540" as="targetPoint" />
          </mxGeometry>
        </mxCell>
        <mxCell id="pkNRhPRXysYuJzZf2Pa--37" value="Перевірка   кожного символа рядка до завершення рядка" style="text;whiteSpace=wrap;" parent="1" vertex="1">
          <mxGeometry x="770" y="635" width="350" height="40" as="geometry" />
        </mxCell>
        <mxCell id="pkNRhPRXysYuJzZf2Pa--38" value="" style="strokeWidth=2;html=1;shape=mxgraph.flowchart.annotation_2;align=left;labelPosition=right;pointerEvents=1;" parent="1" vertex="1">
          <mxGeometry x="720" y="600" width="50" height="100" as="geometry" />
        </mxCell>
        <mxCell id="pkNRhPRXysYuJzZf2Pa--40" value="" style="endArrow=none;dashed=1;html=1;dashPattern=1 3;strokeWidth=2;rounded=0;exitX=1;exitY=0.5;exitDx=0;exitDy=0;entryX=0;entryY=0.5;entryDx=0;entryDy=0;entryPerimeter=0;" parent="1" edge="1">
          <mxGeometry width="50" height="50" relative="1" as="geometry">
            <mxPoint x="660" y="649.44" as="sourcePoint" />
            <mxPoint x="723" y="649.44" as="targetPoint" />
          </mxGeometry>
        </mxCell>
        <mxCell id="pkNRhPRXysYuJzZf2Pa--41" value="Функція повертаає кількість слів&amp;nbsp;" style="text;html=1;align=center;verticalAlign=middle;resizable=0;points=[];autosize=1;strokeColor=none;fillColor=none;" parent="1" vertex="1">
          <mxGeometry x="780" y="1535" width="210" height="30" as="geometry" />
        </mxCell>
        <mxCell id="pkNRhPRXysYuJzZf2Pa--42" value="" style="strokeWidth=2;html=1;shape=mxgraph.flowchart.annotation_2;align=left;labelPosition=right;pointerEvents=1;" parent="1" vertex="1">
          <mxGeometry x="760" y="1500" width="50" height="100" as="geometry" />
        </mxCell>
        <mxCell id="pkNRhPRXysYuJzZf2Pa--43" value="" style="endArrow=none;dashed=1;html=1;dashPattern=1 3;strokeWidth=2;rounded=0;exitX=1;exitY=0.5;exitDx=0;exitDy=0;entryX=0;entryY=0.5;entryDx=0;entryDy=0;entryPerimeter=0;" parent="1" source="pkNRhPRXysYuJzZf2Pa--27" target="pkNRhPRXysYuJzZf2Pa--42" edge="1">
          <mxGeometry width="50" height="50" relative="1" as="geometry">
            <mxPoint x="730" y="1500" as="sourcePoint" />
            <mxPoint x="780" y="1450" as="targetPoint" />
          </mxGeometry>
        </mxCell>
        <mxCell id="mVNRX5Atvfrtjoymn3qX-6" value="" style="endArrow=classic;html=1;rounded=0;exitX=0;exitY=0.5;exitDx=0;exitDy=0;" parent="1" source="pkNRhPRXysYuJzZf2Pa--23" edge="1">
          <mxGeometry width="50" height="50" relative="1" as="geometry">
            <mxPoint x="410" y="1120" as="sourcePoint" />
            <mxPoint x="550" y="650" as="targetPoint" />
            <Array as="points">
              <mxPoint x="410" y="1130" />
              <mxPoint x="410" y="650" />
            </Array>
          </mxGeometry>
        </mxCell>
        <mxCell id="mVNRX5Atvfrtjoymn3qX-7" value="False" style="edgeLabel;html=1;align=center;verticalAlign=middle;resizable=0;points=[];" parent="mVNRX5Atvfrtjoymn3qX-6" vertex="1" connectable="0">
          <mxGeometry x="-0.4572" y="2" relative="1" as="geometry">
            <mxPoint as="offset" />
          </mxGeometry>
        </mxCell>
      </root>
    </mxGraphModel>
  </diagram>
</mxfile>
